<?xml version="1.0" encoding="UTF-8" standalone="no"?>
<!DOCTYPE svg PUBLIC "-//W3C//DTD SVG 1.1//EN" "http://www.w3.org/Graphics/SVG/1.1/DTD/svg11.dtd">
<svg width="100%" height="100%" viewBox="0 0 350 90" version="1.1" xmlns="http://www.w3.org/2000/svg" xmlns:xlink="http://www.w3.org/1999/xlink" xml:space="preserve" xmlns:serif="http://www.serif.com/" style="fill-rule:evenodd;clip-rule:evenodd;stroke-miterlimit:10;">
    <g id="Camada-1" serif:id="Camada 1">
        <g>
            <g>
                <g transform="matrix(0.937208,0,0,1,-0.241418,0)">
                    <path d="M2.034,12.028L35.051,12.028C40.553,12.028 44.778,13.39 47.724,16.116C50.67,18.841 52.143,22.216 52.143,26.239C52.143,29.613 51.092,32.507 48.989,34.921C47.588,36.53 45.537,37.802 42.838,38.737C46.939,39.723 49.956,41.417 51.89,43.818C53.824,46.219 54.79,49.236 54.79,52.87C54.79,55.829 54.103,58.489 52.727,60.851C51.351,63.213 49.469,65.082 47.081,66.458C45.602,67.315 43.37,67.937 40.385,68.327C36.413,68.846 33.779,69.106 32.481,69.106L2.034,69.106L2.034,12.028ZM19.827,34.415L27.497,34.415C30.249,34.415 32.163,33.941 33.24,32.994C34.317,32.047 34.856,30.677 34.856,28.886C34.856,27.225 34.317,25.927 33.24,24.993C32.163,24.058 30.288,23.591 27.614,23.591L19.827,23.591L19.827,34.415ZM19.827,56.841L28.821,56.841C31.858,56.841 33.999,56.303 35.245,55.225C36.491,54.148 37.114,52.701 37.114,50.884C37.114,49.197 36.498,47.841 35.265,46.816C34.032,45.79 31.871,45.278 28.782,45.278L19.827,45.278L19.827,56.841Z" style="fill:rgb(229,30,37);fill-rule:nonzero;"/>
                </g>
                <g transform="matrix(0.937208,0,0,1,-0.241418,0)">
                    <path d="M57.472,27.757L72.306,27.757L72.306,34.532C73.734,31.599 75.207,29.581 76.725,28.478C78.244,27.374 80.119,26.823 82.351,26.823C84.687,26.823 87.244,27.55 90.021,29.003L85.116,40.294C83.247,39.515 81.767,39.126 80.677,39.126C78.601,39.126 76.991,39.983 75.849,41.696C74.214,44.11 73.396,48.626 73.396,55.245L73.396,69.106L57.472,69.106L57.472,27.757Z" style="fill:rgb(229,30,37);fill-rule:nonzero;"/>
                </g>
                <g transform="matrix(0.937208,0,0,1,-0.241418,0)">
                    <path d="M102.865,41.151L87.72,39.554C88.291,36.907 89.115,34.824 90.192,33.305C91.269,31.787 92.82,30.47 94.845,29.354C96.298,28.549 98.297,27.926 100.841,27.485C103.384,27.043 106.136,26.823 109.095,26.823C113.845,26.823 117.66,27.089 120.541,27.621C123.423,28.153 125.824,29.263 127.744,30.95C129.094,32.118 130.158,33.773 130.937,35.914C131.716,38.055 132.105,40.099 132.105,42.046L132.105,60.306C132.105,62.253 132.228,63.778 132.475,64.881C132.721,65.984 133.26,67.392 134.091,69.106L119.218,69.106C118.621,68.041 118.231,67.23 118.05,66.672C117.868,66.114 117.686,65.238 117.505,64.044C115.428,66.043 113.365,67.47 111.314,68.327C108.511,69.469 105.253,70.04 101.541,70.04C96.61,70.04 92.866,68.898 90.309,66.614C87.752,64.33 86.474,61.513 86.474,58.165C86.474,55.024 87.395,52.442 89.238,50.417C91.081,48.392 94.481,46.887 99.439,45.901C105.383,44.707 109.237,43.87 111.003,43.389C112.768,42.909 114.636,42.28 116.609,41.501C116.609,39.554 116.207,38.192 115.402,37.413C114.597,36.634 113.183,36.245 111.158,36.245C108.563,36.245 106.616,36.66 105.318,37.491C104.306,38.14 103.488,39.36 102.865,41.151ZM116.609,49.483C114.429,50.261 112.158,50.949 109.796,51.546C106.577,52.403 104.539,53.246 103.683,54.077C102.8,54.933 102.359,55.907 102.359,56.997C102.359,58.243 102.794,59.262 103.663,60.053C104.533,60.845 105.811,61.241 107.498,61.241C109.263,61.241 110.905,60.812 112.424,59.956C113.942,59.099 115.019,58.055 115.655,56.822C116.291,55.589 116.609,53.986 116.609,52.013L116.609,49.483Z" style="fill:rgb(229,30,37);fill-rule:nonzero;"/>
                </g>
            </g>
            <g>
                <g transform="matrix(0.934954,0,0,1,10.664,0)">
                    <path d="M235.113,41.671L219.967,40.075C220.538,37.427 221.362,35.344 222.44,33.826C223.517,32.307 225.068,30.99 227.092,29.874C228.546,29.069 230.544,28.446 233.088,28.005C235.632,27.564 238.383,27.343 241.342,27.343C246.092,27.343 249.908,27.609 252.789,28.141C255.67,28.674 258.071,29.783 259.992,31.47C261.341,32.638 262.406,34.293 263.184,36.434C263.963,38.576 264.352,40.62 264.352,42.567L264.352,60.827C264.352,62.774 264.476,64.298 264.722,65.402C264.969,66.505 265.507,67.913 266.338,69.626L251.465,69.626C250.868,68.562 250.479,67.751 250.297,67.193C250.115,66.635 249.934,65.759 249.752,64.565C247.676,66.563 245.612,67.991 243.561,68.847C240.758,69.989 237.501,70.56 233.789,70.56C228.857,70.56 225.113,69.418 222.556,67.134C220,64.85 218.721,62.034 218.721,58.685C218.721,55.545 219.643,52.962 221.486,50.938C223.329,48.913 226.729,47.407 231.687,46.421C237.63,45.227 241.485,44.39 243.25,43.91C245.015,43.43 246.884,42.8 248.857,42.022C248.857,40.075 248.454,38.712 247.65,37.933C246.845,37.155 245.43,36.765 243.406,36.765C240.81,36.765 238.863,37.181 237.566,38.011C236.553,38.66 235.736,39.88 235.113,41.671ZM248.857,50.003C246.676,50.782 244.405,51.47 242.043,52.067C238.824,52.923 236.787,53.767 235.93,54.597C235.048,55.454 234.607,56.427 234.607,57.517C234.607,58.763 235.041,59.782 235.911,60.574C236.78,61.365 238.059,61.761 239.746,61.761C241.511,61.761 243.153,61.333 244.671,60.476C246.19,59.62 247.267,58.575 247.903,57.342C248.539,56.109 248.857,54.507 248.857,52.534L248.857,50.003Z" style="fill:rgb(0,0,255);fill-rule:nonzero;"/>
                </g>
                <g transform="matrix(0.934954,0,0,1,10.664,0)">
                    <path d="M299.038,53.468L314.106,55.181C313.275,58.322 311.913,61.041 310.018,63.338C308.123,65.635 305.703,67.42 302.757,68.692C299.811,69.963 296.066,70.599 291.524,70.599C287.137,70.599 283.484,70.191 280.564,69.373C277.644,68.555 275.133,67.232 273.03,65.402C270.928,63.572 269.28,61.424 268.086,58.958C266.892,56.492 266.295,53.222 266.295,49.147C266.295,44.89 267.021,41.347 268.475,38.517C269.539,36.441 270.993,34.579 272.836,32.93C274.678,31.282 276.573,30.056 278.52,29.251C281.609,27.979 285.567,27.343 290.395,27.343C297.144,27.343 302.289,28.55 305.832,30.964C309.375,33.378 311.861,36.908 313.288,41.554L298.376,43.54C297.909,41.775 297.059,40.445 295.826,39.549C294.593,38.654 292.939,38.206 290.862,38.206C288.241,38.206 286.119,39.147 284.496,41.029C282.874,42.911 282.063,45.759 282.063,49.575C282.063,52.975 282.868,55.558 284.477,57.323C286.086,59.088 288.137,59.97 290.629,59.97C292.705,59.97 294.451,59.438 295.865,58.374C297.28,57.31 298.338,55.675 299.038,53.468Z" style="fill:rgb(0,0,255);fill-rule:nonzero;"/>
                </g>
                <g transform="matrix(0.934954,0,0,1,19.6039,0)">
                    <path d="M304.228,49.069C304.228,42.761 306.356,37.564 310.613,33.475C314.87,29.387 320.619,27.343 327.861,27.343C336.141,27.343 342.397,29.744 346.628,34.546C350.028,38.414 351.728,43.177 351.728,48.835C351.728,55.194 349.619,60.405 345.401,64.467C341.183,68.529 335.35,70.56 327.9,70.56C321.255,70.56 315.882,68.873 311.781,65.499C306.746,61.32 304.228,55.843 304.228,49.069ZM320.113,49.03C320.113,52.716 320.859,55.441 322.352,57.206C323.844,58.971 325.72,59.853 327.978,59.853C330.262,59.853 332.137,58.984 333.604,57.245C335.071,55.506 335.804,52.716 335.804,48.874C335.804,45.292 335.064,42.625 333.585,40.873C332.105,39.121 330.275,38.245 328.095,38.245C325.785,38.245 323.877,39.134 322.371,40.912C320.866,42.69 320.113,45.396 320.113,49.03Z" style="fill:rgb(0,0,255);fill-rule:nonzero;"/>
                </g>
            </g>
        </g>
        <g transform="matrix(1,0,0,1.39295,130.301,31.3232)">
            <path d="M4.252,39.924C4.252,39.924 8.046,39.986 15.125,39.986C20.136,39.986 24.095,39.318 27.002,37.984C29.909,36.649 32.038,34.853 33.388,32.597C34.738,30.341 35.413,28.02 35.413,25.634C35.413,23.275 34.774,21.109 33.498,19.139C32.22,17.168 30.377,15.652 27.969,14.588C25.561,13.525 21.888,12.695 16.949,12.099C13.689,11.684 11.573,11.217 10.6,10.699C9.627,10.181 9.141,9.417 9.141,8.406C9.141,7.499 9.524,6.728 10.29,6.093C11.056,5.458 12.279,5.14 13.958,5.14C15.611,5.14 17.022,5.556 18.19,6.386C19.042,7.009 19.649,7.982 20.015,9.306L34.1,7.827C33.126,5.127 31.904,2.986 30.432,1.402C28.96,-0.181 27.124,-1.349 24.922,-2.102C22.721,-2.854 19.309,-3.231 14.687,-3.231C10.308,-3.231 6.817,-2.744 4.214,-1.772C1.611,-0.8 -0.432,0.672 -1.916,2.642C-3.4,4.613 -4.142,6.96 -4.142,9.683C-4.142,12.172 -3.455,14.389 -2.08,16.334C-0.706,18.278 3.48,20.535 5.659,21.079C9.376,22.007 8.115,21.567 13.272,22.526C16.726,23.174 19.321,24.332 20.124,24.773C21.243,25.395 21.803,26.276 21.803,27.416C21.803,28.428 21.376,29.27 20.525,29.943C19.431,30.851 17.484,30.871 15.489,30.871C13.665,30.871 4.173,30.738 4.173,30.738L4.252,39.924Z" style="fill:rgb(229,30,37);fill-rule:nonzero;"/>
        </g>
        <g transform="matrix(1,0,0,1,172.463,17.1812)">
            <path d="M0,47.812C3.495,51.549 9.78,53.418 18.856,53.418C24.025,53.418 28.308,52.62 31.706,51.024C35.103,49.427 37.749,47.085 39.641,43.996C41.535,40.908 42.481,37.533 42.481,33.874C42.481,30.758 41.771,27.942 40.351,25.424C38.932,22.907 36.663,20.798 33.544,19.098C30.425,17.398 25.263,15.717 18.055,14.056C15.143,13.407 13.298,12.706 12.522,11.953C11.721,11.227 11.321,10.409 11.321,9.5C11.321,8.254 11.806,7.197 12.777,6.327C13.748,5.458 15.192,5.023 17.109,5.023C19.439,5.023 25.822,4.779 27.587,4.775C119.747,4.56 168.283,4.532 168.283,4.532L168.345,-6.153C168.345,-6.153 25.566,-5.606 18.747,-5.606C13.189,-5.606 8.815,-4.86 5.625,-3.368C2.433,-1.875 0.042,0.175 -1.547,2.784C-3.137,5.393 -3.932,8.164 -3.932,11.097C-3.932,15.561 -2.379,19.234 0.728,22.115C3.81,24.996 8.966,27.307 16.199,29.045C20.616,30.083 23.43,31.187 24.644,32.355C25.857,33.523 26.464,34.846 26.464,36.326C26.464,37.883 25.827,39.252 24.553,40.433C23.279,41.615 21.464,42.206 19.111,42.206C15.956,42.206 13.529,41.05 11.831,38.74C10.787,37.313 10.095,35.236 9.755,32.51L-5.934,33.562C-5.473,39.324 -3.495,44.074 0,47.812Z" style="fill:rgb(0,0,255);fill-rule:nonzero;stroke:rgb(0,0,255);stroke-width:1.91px;"/>
        </g>
        <g transform="matrix(0.938414,0,0,1,0.261469,39.0187)">
            <text x="217.757px" y="-18.13px" style="font-family:'AvenirNextCondensed-Regular', 'Avenir Next Condensed', sans-serif;font-stretch:condensed;font-size:12px;fill:white;">E<tspan x="230.993px 247.781px 261.833px 275.621px 288.125px 301.913px 316.553px 329.789px 344.741px " y="-18.13px -18.13px -18.13px -18.13px -18.13px -18.13px -18.13px -18.13px -18.13px ">MBALAGENS</tspan></text>
        </g>
        <g transform="matrix(0.984044,0,0,1.17596,-8.17552,-16.6343)">
            <rect x="10.314" y="77.22" width="135.053" height="10.828" style="fill:rgb(229,30,37);"/>
        </g>
        <g transform="matrix(0.838719,0,0,0.838719,-15.0737,21.9535)">
            <text x="21.852px" y="75.284px" style="font-family:'AvenirNextCondensed-Regular', 'Avenir Next Condensed', sans-serif;font-stretch:condensed;font-size:14.308px;fill:white;">E<tspan x="37.133px 52.642px 68.524px 83.804px 99.957px 112.576px 128.515px 142.923px 155.542px 171.051px 185.244px " y="75.284px 75.284px 75.284px 75.284px 75.284px 75.284px 75.284px 75.284px 75.284px 75.284px 75.284px ">SPECIALISTA</tspan></text>
        </g>
    </g>
</svg>
